{
  "title": "The Nice Guys 2016 HDRip XviD-MAXSPEED",
  "uid": 15423775,
  "size": 1409227922,
  "categoryP": "video",
  "categoryS": "movies",
  "magnet": "?xt=urn:btih:dc6608083a9d4ace2099390751c2f3d00cc4bfc3&amp;dn=The+Nice+Guys+2016+HDRip+XviD-MAXSPEED&amp;tr=udp%3A%2F%2Ftracker.leechers-paradise.org%3A6969&amp;tr=udp%3A%2F%2Fzer0day.ch%3A1337&amp;tr=udp%3A%2F%2Fopen.demonii.com%3A1337&amp;tr=udp%3A%2F%2Ftracker.coppersurfer.tk%3A6969&amp;tr=udp%3A%2F%2Fexodus.desync.com%3A6969",
  "seeders": 63,
  "leechers": 20,
  "uploader": "extremezone",
  "files": 4,
  "time": 1469664048,
  "description": "http://extraimago.com/images/2016/07/27/nicec.jpg\r\n\r\nScreens:\r\n \nhttp://extraimago.com/images/2016/07/27/niceguys1.jpg \nhttp://extraimago.com/images/2016/07/27/niceguys2.jpg \nhttp://extraimago.com/images/2016/07/27/niceguys3.jpg \nhttp://extraimago.com/images/2016/07/27/niceguys4.jpg\r\n\r\nScreenCaps:\r\n \nhttp://extraimago.com/images/2016/07/27/screencaps.jpg\r\n\r\nThe Nice Guys 2016 HDRip XviD-MAXSPEED\r\nFormat                                   : AVI\r\nFormat/Info                              : Audio Video Interleave\r\nFormat profile                           : OpenDML\r\nFormat settings                          : rec\r\nFile size                                : 1.30 GiB\r\nDuration                                 : 1h 51mn\r\nOverall bit rate                         : 1 679 Kbps\r\nWriting application                      : VirtualDubMod 1.5.10.2 (build 2542/release)\r\nWriting library                          : VirtualDubMod build 2542/release\r\nOriginal source form                     : MAX TORRENTZ\r\nCopyright                                : SIGISMUNT\r\n\r\nVideo\r\nID                                       : 0\r\nFormat                                   : MPEG-4 Visual\r\nFormat profile                           : Advanced   \r\nFormat settings, BVOP                    : 2\r\nFormat settings, QPel                    : No\r\nFormat settings, GMC                     : No warppoints\r\nFormat settings, Matrix                  : Default (MPEG)\r\nCodec ID                                 : XVID\r\nCodec ID/Hint                            : XviD\r\nDuration                                 : 1h 51mn\r\nBit rate                                 : 1 482 Kbps\r\nWidth                                    : 720 pixels\r\nHeight                                   : 304 pixels\r\nDisplay aspect ratio                     : 2.35:1\r\nFrame rate                               : 25.000 fps\r\nColor space                              : YUV\r\nChroma subsampling                       : 4:2:0\r\nBit depth                                : 8 bits\r\nScan type                                : Progressive\r\nCompression mode                         : Lossy\r\nBits/(Pixel*Frame)                       : 0.271\r\nStream size                              : 1.15 GiB (88%)\r\nWriting library                          : XviD 1.2.1 (UTC 2008-12-04)\r\n\r\nAudio\r\nID                                       : 1\r\nFormat                                   : AC-3\r\nFormat/Info                              : Audio Coding 3\r\nMode extension                           : CM (complete main)\r\nFormat settings, Endianness              : Big\r\nCodec ID                                 : 2000\r\nDuration                                 : 1h 51mn\r\nBit rate mode                            : Constant\r\nBit rate                                 : 192 Kbps\r\nChannel(s)                               : 2 channels\r\nChannel positions                        : Front: L R\r\nSampling rate                            : 48.0 KHz\r\nBit depth                                : 16 bits\r\nCompression mode                         : Lossy\r\nStream size                              : 152 MiB (11%)\r\nAlignment                                : Aligned on interleaves\r\nInterleave, duration                     : 64 ms (1.60 video frames)\r\nInterleave, preload duration             : 192 ms\r\n\r\nSource: WEBDL HD (clean encode/source, perfect a/v/sync quality,sample included)\r\nThis torrent is not seedbox supported,please seed it to the MAX\r\n\r\nUploader Note: If you think image it's a little dark on your device then\r\nVLC-&gt;Ctrl+E-&gt;Video Effects-&gt;Image adjust-&gt;Brightness-&gt;Close, simple as 1,2,3\r\nso no more complaints about this please,thank you\r\n\r\nNote: If you have something as early releases, seedboxes  http://torentz.3xforum.ro\r\n\r\nHow To Get Your MAXSPEED (uTorrent)\r\n\r\nTorrent Client - Preferences - Bandwidth - Number of connections - Set aprox. 500 for each\r\nTorrent Client - Preferences - BiTorrent - Protocol Encryption - Forced\r\nBandwidth Allocation - High (Set download/upload limit - Unlimited)\r\nStop Other Active Torrents - Start downloading and wait for connections.\r\nEnjoy and Seed for at least 1:1 ratio. Don't forget to say thanks/leave reviews.\r\nFor other 480p, 720p, 1080p, x264, mkv, Bluray HD downloads use search function.\r\nIf screens/Caps image host is dead googlesearch &quot;release name&quot;+&quot;screens&quot; or &quot;sample&quot;.\r\nGreets to all actual/future p2p/scene QUALITY groups and affiliate websites.\r\nDon't trust IMDb robots/bots bad ratings,always watch some trailers first.\r\nIgnore stupid comments/fake/mislabeled/no-DVDrips/CAM/TS/RAR uploads.\r\nPlease spread this release/torrent to your friends/forums/etc.\r\nIf you need translation subs visit some subtitles sites.\r\nReport if you see online streaming or other spam links.\r\nMAXSPEED free full movie downloads 2008-2016.\r\nRecommended movie player VLC PLAYER",
  "parsed": {
    "xt": "urn:btih:dc6608083a9d4ace2099390751c2f3d00cc4bfc3",
    "dn": "The Nice Guys 2016 HDRip XviD-MAXSPEED",
    "tr": [
      "udp://exodus.desync.com:6969",
      "udp://open.demonii.com:1337",
      "udp://tracker.coppersurfer.tk:6969",
      "udp://tracker.leechers-paradise.org:6969",
      "udp://zer0day.ch:1337"
    ],
    "infoHash": "dc6608083a9d4ace2099390751c2f3d00cc4bfc3",
    "infoHashBuffer": {
      "type": "Buffer",
      "data": [
        220,
        102,
        8,
        8,
        58,
        157,
        74,
        206,
        32,
        153,
        57,
        7,
        81,
        194,
        243,
        208,
        12,
        196,
        191,
        195
      ]
    },
    "name": "The Nice Guys 2016 HDRip XviD-MAXSPEED",
    "announce": [
      "udp://exodus.desync.com:6969",
      "udp://open.demonii.com:1337",
      "udp://tracker.coppersurfer.tk:6969",
      "udp://tracker.leechers-paradise.org:6969",
      "udp://zer0day.ch:1337"
    ],
    "urlList": []
  },
  "previous": 71,
  "peers": 74,
  "last_updated": "2016-12-27T14:54:52.419Z"
}